PathFileType	4	(X/Y/Z) shrug_2kg_1.trc																										
DataRate	CameraRate	NumFrames	NumMarkers	Units	OrigDataRate	OrigDataStartFrame	OrigNumFrames																					
100	100	29	9	mm	100	124	433																					
Frame#	Time	gu			centelbow			EpL			centpxt8			centijc7			ij			ts			aa			ai		
		X1	Y1	Z1	X2	Y2	Z2	X3	Y3	Z3	X4	Y4	Z4	X5	Y5	Z5	X6	Y6	Z6	X7	Y7	Z7	X8	Y8	Z8	X9	Y9	Z9
123	1.23	-81.779	32.451	158.851	-110.266	-205.938	216.673	-95.298	-197.012	243.796	-46.816	-153.158	-8.669	-46.816	31.938	-8.669	0	0	0	-131.188	52.998	44.621	-107.385	73.626	159.655	-152.247	-54.691	73.693
124	1.24	-81.717	33.371	158.824	-109.991	-204.92	217.155	-95.022	-195.924	244.255	-46.816	-153.158	-8.669	-46.816	31.938	-8.669	0	0	0	-131.195	53.27	44.133	-107.152	74.932	158.926	-152.088	-54.178	74.201
125	1.25	-82.146	34.708	158.896	-110.112	-203.534	217.575	-95.153	-194.479	244.661	-46.816	-153.158	-8.669	-46.816	31.938	-8.669	0	0	0	-131.455	53.848	43.337	-107.212	76.494	157.898	-152.184	-53.365	74.344
126	1.26	-82.325	36.319	158.966	-109.906	-201.921	217.833	-94.958	-192.822	244.91	-46.816	-153.158	-8.669	-46.816	31.938	-8.669	0	0	0	-131.731	54.654	42.52	-107.348	78.214	156.867	-152.281	-52.342	74.384
127	1.27	-81.9	37.726	158.917	-109.144	-200.533	217.866	-94.192	-191.407	244.933	-46.816	-153.158	-8.669	-46.816	31.938	-8.669	0	0	0	-131.846	55.363	42.18	-107.379	79.723	156.341	-152.241	-51.438	74.786
128	1.28	-81.294	38.917	158.616	-108.234	-199.368	217.595	-93.26	-190.228	244.644	-46.816	-153.158	-8.669	-46.816	31.938	-8.669	0	0	0	-131.683	56.035	42.038	-107.097	81.09	156.023	-151.925	-50.594	75.295
129	1.29	-80.879	40.241	157.998	-107.467	-198.067	217.045	-92.446	-188.911	244.063	-46.816	-153.158	-8.669	-46.816	31.938	-8.669	0	0	0	-131.387	56.865	41.438	-106.547	82.572	155.223	-151.443	-49.599	75.332
130	1.3	-80.6	41.663	157.166	-106.84	-196.646	216.365	-91.75	-187.469	243.337	-46.816	-153.158	-8.669	-46.816	31.938	-8.669	0	0	0	-131.413	57.685	40.374	-106.187	84.037	153.926	-151.296	-48.598	74.931
131	1.31	-80.368	42.911	156.345	-106.366	-195.385	215.705	-91.199	-186.195	242.629	-46.816	-153.158	-8.669	-46.816	31.938	-8.669	0	0	0	-131.905	58.305	39.232	-106.247	85.275	152.542	-151.688	-47.78	74.449
132	1.32	-80.185	43.92	155.766	-106.073	-194.374	215.183	-90.841	-185.186	242.071	-46.816	-153.158	-8.669	-46.816	31.938	-8.669	0	0	0	-132.344	58.786	38.198	-106.313	86.316	151.288	-152.087	-47.104	74.017
133	1.33	-80.107	44.605	155.542	-106.036	-193.712	214.844	-90.767	-184.548	241.72	-46.816	-153.158	-8.669	-46.816	31.938	-8.669	0	0	0	-132.258	59.006	37.492	-106.036	87.016	150.42	-152.01	-46.715	73.805
134	1.34	-80.258	44.836	155.658	-106.404	-193.526	214.685	-91.132	-184.405	241.573	-46.816	-153.158	-8.669	-46.816	31.938	-8.669	0	0	0	-131.876	58.665	37.425	-105.723	87.043	150.277	-151.72	-46.919	74.084
135	1.35	-80.596	44.839	155.994	-107.054	-193.581	214.646	-91.813	-184.513	241.57	-46.816	-153.158	-8.669	-46.816	31.938	-8.669	0	0	0	-131.715	57.925	37.887	-105.839	86.558	150.738	-151.718	-47.559	74.745
136	1.36	-80.872	44.989	156.287	-107.59	-193.503	214.528	-92.406	-184.483	241.5	-46.816	-153.158	-8.669	-46.816	31.938	-8.669	0	0	0	-131.957	57.42	38.25	-106.414	86.238	151.13	-152.085	-48	75.226
137	1.37	-81.038	45.311	156.243	-107.896	-193.255	214.112	-92.777	-184.27	241.132	-46.816	-153.158	-8.669	-46.816	31.938	-8.669	0	0	0	-132.454	57.476	38.009	-107.173	86.467	150.904	-152.614	-47.901	75.091
138	1.38	-81.33	45.595	155.957	-108.249	-193.025	213.579	-93.199	-184.054	240.643	-46.816	-153.158	-8.669	-46.816	31.938	-8.669	0	0	0	-132.951	57.74	37.297	-107.867	86.927	150.185	-153.104	-47.59	74.515
139	1.39	-81.912	45.8	155.95	-108.856	-192.852	213.426	-93.908	-183.876	240.545	-46.816	-153.158	-8.669	-46.816	31.938	-8.669	0	0	0	-133.269	57.734	36.666	-108.474	87.166	149.554	-153.453	-47.531	74.05
140	1.4	-82.763	46.084	156.432	-109.66	-192.612	213.747	-94.87	-183.616	240.946	-46.816	-153.158	-8.669	-46.816	31.938	-8.669	0	0	0	-133.481	57.463	36.431	-109.233	87.185	149.362	-153.742	-47.732	73.971
141	1.41	-83.803	46.445	157.116	-110.55	-192.328	214.182	-95.957	-183.309	241.479	-46.816	-153.158	-8.669	-46.816	31.938	-8.669	0	0	0	-133.755	57.149	36.448	-110.327	87.155	149.477	-154.1	-47.997	74.078
142	1.42	-84.93	46.706	157.817	-111.462	-192.173	214.539	-97.08	-183.135	241.942	-46.816	-153.158	-8.669	-46.816	31.938	-8.669	0	0	0	-134.081	56.811	36.475	-111.594	87.037	149.636	-154.492	-48.322	74.105
143	1.43	-86.007	46.876	158.412	-112.305	-192.126	214.723	-98.114	-183.082	242.223	-46.816	-153.158	-8.669	-46.816	31.938	-8.669	0	0	0	-134.415	56.451	36.354	-112.775	86.818	149.643	-154.842	-48.699	73.929
144	1.44	-86.847	47.008	158.574	-112.931	-192.105	214.508	-98.88	-183.064	242.081	-46.816	-153.158	-8.669	-46.816	31.938	-8.669	0	0	0	-134.813	56.17	35.927	-113.788	86.642	149.304	-155.203	-49.003	73.458
145	1.45	-87.284	46.995	158.264	-113.206	-192.181	214.01	-99.245	-183.134	241.626	-46.816	-153.158	-8.669	-46.816	31.938	-8.669	0	0	0	-135.21	55.991	35.173	-114.627	86.601	148.593	-155.537	-49.185	72.728
146	1.46	-87.457	46.883	157.908	-113.183	-192.299	213.712	-99.302	-183.219	241.358	-46.816	-153.158	-8.669	-46.816	31.938	-8.669	0	0	0	-135.343	55.859	34.337	-115.261	86.694	147.786	-155.615	-49.295	71.984
147	1.47	-87.859	46.969	157.845	-113.189	-192.207	213.859	-99.428	-183.058	241.542	-46.816	-153.158	-8.669	-46.816	31.938	-8.669	0	0	0	-135.146	55.709	33.695	-115.93	86.855	147.21	-155.41	-49.41	71.444
148	1.48	-88.849	47.486	158.099	-113.511	-191.709	214.328	-99.94	-182.464	242.073	-46.816	-153.158	-8.669	-46.816	31.938	-8.669	0	0	0	-134.959	55.491	33.246	-117.165	87.002	146.892	-155.284	-49.601	71.037
149	1.49	-90.284	48.379	158.441	-114.113	-190.86	214.841	-100.786	-181.506	242.668	-46.816	-153.158	-8.669	-46.816	31.938	-8.669	0	0	0	-135.083	55.233	32.677	-119.173	87.103	146.502	-155.513	-49.856	70.418
150	1.5	-91.787	49.337	158.585	-114.813	-189.954	215.099	-101.735	-180.5	243.009	-46.816	-153.158	-8.669	-46.816	31.938	-8.669	0	0	0	-135.454	55.129	31.748	-121.519	87.249	145.761	-155.978	-50.001	69.327
151	1.51	-93.055	50.096	158.393	-115.465	-189.26	214.88	-102.6	-179.74	242.868	-46.816	-153.158	-8.669	-46.816	31.938	-8.669	0	0	0	-135.884	55.457	30.657	-123.638	87.62	144.852	-156.468	-49.765	67.944
